<svg xmlns="http://www.w3.org/2000/svg" xmlns:xlink="http://www.w3.org/1999/xlink" width="200" zoomAndPan="magnify" viewBox="0 0 150 225" height="300" preserveAspectRatio="xMidYMid meet" version="1.0"><defs><g/></defs><g fill="#2b2b2b" fill-opacity="1"><g transform="translate(26.836298, 130.243338)"><g><path d="M 28.742188 -21.246094 C 32.011719 -21.246094 34.609375 -23.839844 34.609375 -27.109375 C 34.609375 -30.28125 32.011719 -32.878906 28.742188 -32.878906 C 25.570312 -32.878906 22.878906 -30.28125 22.878906 -27.109375 C 22.878906 -23.839844 25.570312 -21.246094 28.742188 -21.246094 Z M 17.207031 1.152344 L 23.359375 -11.34375 L 12.691406 -32.011719 L 0.769531 -32.011719 Z M 17.207031 1.152344 "/></g></g></g><g fill="#2b2b2b" fill-opacity="1"><g transform="translate(58.365988, 130.243338)"><g><path d="M 9.996094 -39.125 C 13.171875 -39.125 15.765625 -41.722656 15.765625 -44.894531 C 15.765625 -48.164062 13.171875 -50.757812 9.996094 -50.757812 C 6.730469 -50.757812 4.132812 -48.164062 4.132812 -44.894531 C 4.132812 -41.722656 6.730469 -39.125 9.996094 -39.125 Z M 4.039062 0 L 15.957031 0 L 15.957031 -32.011719 L 4.039062 -32.011719 Z M 4.039062 0 "/></g></g></g><g fill="#2b2b2b" fill-opacity="1"><g transform="translate(74.515212, 130.243338)"><g><path d="M 19.128906 1.152344 C 22.207031 1.25 25.1875 0.382812 27.78125 -1.152344 C 20.285156 0 14.324219 -7.402344 14.324219 -16.824219 C 14.324219 -24.515625 17.878906 -30.953125 22.6875 -32.492188 C 21.535156 -32.78125 20.378906 -32.878906 19.128906 -32.878906 C 9.710938 -32.878906 2.019531 -25.28125 2.019531 -15.863281 C 2.019531 -6.441406 9.710938 1.152344 19.128906 1.152344 Z M 25.1875 -18.363281 C 28.457031 -18.363281 31.050781 -20.957031 31.050781 -24.226562 C 31.050781 -27.398438 28.457031 -30.089844 25.1875 -30.089844 C 22.015625 -30.089844 19.417969 -27.398438 19.417969 -24.226562 C 19.417969 -20.957031 22.015625 -18.363281 25.1875 -18.363281 Z M 25.1875 -18.363281 "/></g></g></g><g fill="#2b2b2b" fill-opacity="1"><g transform="translate(103.161061, 130.243338)"><g><path d="M 9.996094 -39.125 C 13.171875 -39.125 15.765625 -41.722656 15.765625 -44.894531 C 15.765625 -48.164062 13.171875 -50.757812 9.996094 -50.757812 C 6.730469 -50.757812 4.132812 -48.164062 4.132812 -44.894531 C 4.132812 -41.722656 6.730469 -39.125 9.996094 -39.125 Z M 4.039062 0 L 15.957031 0 L 15.957031 -32.011719 L 4.039062 -32.011719 Z M 4.039062 0 "/></g></g></g></svg>