<svg xmlns="http://www.w3.org/2000/svg" xmlns:xlink="http://www.w3.org/1999/xlink" width="500" zoomAndPan="magnify" viewBox="0 0 375 374.999991" height="500" preserveAspectRatio="xMidYMid meet" version="1.0"><defs><g/></defs><g fill="#e4e2dd" fill-opacity="1"><g transform="translate(115.153391, 186.264499)"><g><path d="M 43.175781 -31.914062 C 48.085938 -31.914062 51.984375 -35.8125 51.984375 -40.722656 C 51.984375 -45.488281 48.085938 -49.386719 43.175781 -49.386719 C 38.410156 -49.386719 34.367188 -45.488281 34.367188 -40.722656 C 34.367188 -35.8125 38.410156 -31.914062 43.175781 -31.914062 Z M 25.847656 1.734375 L 35.089844 -17.039062 L 19.0625 -48.085938 L 1.15625 -48.085938 Z M 25.847656 1.734375 "/></g></g></g><g fill="#e4e2dd" fill-opacity="1"><g transform="translate(162.514938, 186.264499)"><g><path d="M 15.019531 -58.773438 C 19.785156 -58.773438 23.683594 -62.671875 23.683594 -67.4375 C 23.683594 -72.347656 19.785156 -76.246094 15.019531 -76.246094 C 10.109375 -76.246094 6.210938 -72.347656 6.210938 -67.4375 C 6.210938 -62.671875 10.109375 -58.773438 15.019531 -58.773438 Z M 6.066406 0 L 23.972656 0 L 23.972656 -48.085938 L 6.066406 -48.085938 Z M 6.066406 0 "/></g></g></g><g fill="#e4e2dd" fill-opacity="1"><g transform="translate(186.773096, 186.264499)"><g><path d="M 28.738281 1.734375 C 33.359375 1.878906 37.835938 0.578125 41.734375 -1.734375 C 30.46875 0 21.515625 -11.121094 21.515625 -25.269531 C 21.515625 -36.824219 26.859375 -46.5 34.078125 -48.808594 C 32.347656 -49.242188 30.613281 -49.386719 28.738281 -49.386719 C 14.585938 -49.386719 3.03125 -37.976562 3.03125 -23.828125 C 3.03125 -9.675781 14.585938 1.734375 28.738281 1.734375 Z M 37.835938 -27.582031 C 42.742188 -27.582031 46.644531 -31.480469 46.644531 -36.390625 C 46.644531 -41.15625 42.742188 -45.199219 37.835938 -45.199219 C 33.070312 -45.199219 29.167969 -41.15625 29.167969 -36.390625 C 29.167969 -31.480469 33.070312 -27.582031 37.835938 -27.582031 Z M 37.835938 -27.582031 "/></g></g></g><g fill="#e4e2dd" fill-opacity="1"><g transform="translate(229.802753, 186.264499)"><g><path d="M 15.019531 -58.773438 C 19.785156 -58.773438 23.683594 -62.671875 23.683594 -67.4375 C 23.683594 -72.347656 19.785156 -76.246094 15.019531 -76.246094 C 10.109375 -76.246094 6.210938 -72.347656 6.210938 -67.4375 C 6.210938 -62.671875 10.109375 -58.773438 15.019531 -58.773438 Z M 6.066406 0 L 23.972656 0 L 23.972656 -48.085938 L 6.066406 -48.085938 Z M 6.066406 0 "/></g></g></g></svg>