<svg xmlns="http://www.w3.org/2000/svg" xmlns:xlink="http://www.w3.org/1999/xlink" width="200" zoomAndPan="magnify" viewBox="0 0 150 225" height="300" preserveAspectRatio="xMidYMid meet" version="1.0"><defs><g/></defs><g fill="#e4e2dd" fill-opacity="1"><g transform="translate(3.304346, 137.682473)"><g><path d="M 42.789062 -31.625 C 47.652344 -31.625 51.515625 -35.488281 51.515625 -40.355469 C 51.515625 -45.078125 47.652344 -48.941406 42.789062 -48.941406 C 38.066406 -48.941406 34.058594 -45.078125 34.058594 -40.355469 C 34.058594 -35.488281 38.066406 -31.625 42.789062 -31.625 Z M 25.617188 1.71875 L 34.773438 -16.886719 L 18.890625 -47.652344 L 1.144531 -47.652344 Z M 25.617188 1.71875 "/></g></g></g><g fill="#e4e2dd" fill-opacity="1"><g transform="translate(50.238899, 137.682473)"><g><path d="M 14.882812 -58.242188 C 19.605469 -58.242188 23.46875 -62.105469 23.46875 -66.828125 C 23.46875 -71.695312 19.605469 -75.558594 14.882812 -75.558594 C 10.015625 -75.558594 6.152344 -71.695312 6.152344 -66.828125 C 6.152344 -62.105469 10.015625 -58.242188 14.882812 -58.242188 Z M 6.011719 0 L 23.753906 0 L 23.753906 -47.652344 L 6.011719 -47.652344 Z M 6.011719 0 "/></g></g></g><g fill="#e4e2dd" fill-opacity="1"><g transform="translate(74.278354, 137.682473)"><g><path d="M 28.476562 1.71875 C 33.058594 1.859375 37.492188 0.574219 41.355469 -1.71875 C 30.195312 0 21.324219 -11.019531 21.324219 -25.042969 C 21.324219 -36.492188 26.617188 -46.078125 33.773438 -48.367188 C 32.054688 -48.796875 30.335938 -48.941406 28.476562 -48.941406 C 14.453125 -48.941406 3.003906 -37.636719 3.003906 -23.613281 C 3.003906 -9.589844 14.453125 1.71875 28.476562 1.71875 Z M 37.492188 -27.332031 C 42.359375 -27.332031 46.222656 -31.195312 46.222656 -36.0625 C 46.222656 -40.785156 42.359375 -44.792969 37.492188 -44.792969 C 32.769531 -44.792969 28.90625 -40.785156 28.90625 -36.0625 C 28.90625 -31.195312 32.769531 -27.332031 37.492188 -27.332031 Z M 37.492188 -27.332031 "/></g></g></g><g fill="#e4e2dd" fill-opacity="1"><g transform="translate(116.920072, 137.682473)"><g><path d="M 14.882812 -58.242188 C 19.605469 -58.242188 23.46875 -62.105469 23.46875 -66.828125 C 23.46875 -71.695312 19.605469 -75.558594 14.882812 -75.558594 C 10.015625 -75.558594 6.152344 -71.695312 6.152344 -66.828125 C 6.152344 -62.105469 10.015625 -58.242188 14.882812 -58.242188 Z M 6.011719 0 L 23.753906 0 L 23.753906 -47.652344 L 6.011719 -47.652344 Z M 6.011719 0 "/></g></g></g></svg>